<svg xmlns="http://www.w3.org/2000/svg" width="96" height="96" viewBox="0 0 96 96" fill="none">
<path d="M70 50C58.9543 50 50 58.9543 50 70V70.1C50 72.806 50 74.1589 49.4901 75.1997C49.002 76.1962 48.1962 77.002 47.1997 77.4901C46.1589 78 44.806 78 42.1 78H39.1689C31.918 78 28.2926 78 25.5037 76.6338C22.8335 75.3256 20.6743 73.1665 19.3662 70.4963C18 67.7074 18 64.082 18 56.8311V39.1689C18 31.918 18 28.2926 19.3662 25.5037C20.6743 22.8335 22.8335 20.6743 25.5037 19.3662C28.2926 18 31.918 18 39.1689 18H56.8311C64.082 18 67.7074 18 70.4963 19.3662C73.1665 20.6743 75.3256 22.8335 76.6338 25.5037C78 28.2926 78 31.918 78 39.1689V42.1C78 44.806 78 46.1589 77.4901 47.1997C77.002 48.1962 76.1962 49.002 75.1997 49.4901C74.1589 50 72.806 50 70.1 50H70Z" fill="#DE5833"/>
<path d="M50 72.7374V69.9998C50 68.4719 50.1713 66.984 50.4958 65.5543C48.9585 62.0426 47.7153 57.7993 48.4415 54.9063C48.5977 54.2863 46.6761 31.947 45.3178 31.2276C44.9679 31.0411 44.5994 30.8293 44.2184 30.6104C42.9555 29.8847 41.5566 29.0809 40.2512 28.8627C39.3892 28.7248 38.2588 28.7901 37.3752 28.9091C37.2182 28.9302 37.2117 29.2125 37.3618 29.2634C37.9419 29.4599 38.6463 29.8012 39.0614 30.3171C39.14 30.4148 39.0345 30.5684 38.9093 30.573C38.518 30.5875 37.8081 30.7516 36.8714 31.5471C36.7631 31.6391 36.8531 31.8099 36.9925 31.7824C39.0054 31.3841 41.0611 31.5803 42.2726 32.6815C42.3512 32.7529 42.3101 32.8812 42.2076 32.909C31.6943 35.7661 33.7755 44.9115 36.5743 56.1345C39.2113 66.7091 40.4621 70.8797 40.6129 71.3748C40.623 71.4081 40.6415 71.4337 40.672 71.4504C41.9749 72.1654 46.6131 72.7115 50 72.7374Z" fill="#DDDDDD"/>
<path d="M73.981 50C74.0387 49.2925 74.068 48.577 74.068 47.8546C74.068 33.4576 62.397 21.7866 48.0001 21.7866C33.6032 21.7866 21.9321 33.4576 21.9321 47.8546C21.9321 62.2515 33.6032 73.9225 48.0001 73.9225C48.673 73.9225 49.3399 73.897 50 73.847V70C50 68.1439 50.2528 66.347 50.7259 64.6416C49.0564 60.216 48.0584 56.1513 49.9412 55.8585C50.0458 55.8423 50.112 55.7188 50.062 55.6256C44.9964 46.185 51.134 46.8717 54.2335 47.2185C54.9983 47.304 55.5781 47.3689 55.759 47.2559C56.6767 46.6823 56.1063 34.09 48.1405 32.3794C48.1083 32.3724 48.0787 32.3544 48.0582 32.3286C45.8829 29.5884 41.5479 28.3421 37.3967 28.9006C37.2319 28.9228 37.2467 29.2042 37.4109 29.2307C38.1049 29.3427 38.7218 29.5163 39.0842 29.6297C39.2054 29.6677 39.2124 29.8353 39.0979 29.8905C38.5439 30.1572 37.4218 30.7658 36.8476 31.5572C36.773 31.6601 36.8773 31.7812 36.9974 31.7397C39.9256 30.7295 42.2414 31.2102 43.4776 32.6767C43.5428 32.7541 43.4946 32.8718 43.3961 32.8949C32.622 35.4174 34.5878 43.447 36.9947 53.2778L36.9963 53.2846C37.0622 53.5535 37.1283 53.8238 37.1946 54.0954C39.1117 61.9538 41.1312 68.4431 41.9219 70.9001C31.7064 68.213 24.1723 58.9137 24.1723 47.8546C24.1723 34.6949 34.8404 24.0268 48.0001 24.0268C61.1598 24.0268 71.8278 34.6949 71.8278 47.8546C71.8278 48.5777 71.7956 49.2933 71.7326 50H73.981Z" fill="white"/>
<path d="M51.7376 61.8341C51.3742 61.7276 50.8821 61.7065 50.2039 61.8245C48.9999 62.0338 48.3353 62.3241 48.0387 62.8246C46.1384 62.1041 42.9414 60.9922 42.169 62.066C41.3247 63.2399 42.38 68.7929 43.5013 69.5139C44.0868 69.8903 46.8871 68.0904 48.3494 66.8491C48.5854 67.1815 48.9652 67.3718 49.7461 67.3537C49.881 67.3506 50.0255 67.3442 50.1761 67.3346C50.4337 65.4 50.9679 63.5528 51.7376 61.8341Z" fill="#3CA82B"/>
<path d="M51.7399 61.8288C51.3745 61.7267 50.8892 61.7075 50.2355 61.8132C48.6189 62.0748 48.2691 62.4114 48.3124 63.3687C48.3104 64.0141 48.3948 65.1412 48.5662 65.6206C48.7805 66.2198 49.0186 66.6067 50.0764 66.5884C50.1453 66.5873 50.217 66.5852 50.2909 66.5822C50.5773 64.9184 51.0694 63.3249 51.7399 61.8288Z" fill="#4CBA3C"/>
<path d="M47.7267 62.7105C46.0629 61.97 43.0319 61.2344 42.6581 61.8259C41.8725 63.0693 42.9794 68.1129 43.5809 68.5854C44.1013 68.9941 48.0884 66.6182 47.9292 66.0844C47.3848 64.2595 47.7267 62.7105 47.7267 62.7105Z" fill="#4CBA3C"/>
<path d="M49.5927 46.7831C45.5134 46.7343 44.371 48.7438 44.1258 49.8102C43.8084 51.2059 44.4244 52.82 45.8008 53.9268C46.8858 54.7991 49.9451 56.554 54.8431 56.514C54.9761 56.5129 55.1076 56.5105 55.2375 56.5067C56.2567 55.3922 57.4005 54.3936 58.6467 53.5328C57.0232 53.7026 54.9549 53.8579 52.701 53.5326C49.0821 53.0095 48.7263 51.3482 49.1866 50.6434C49.8833 49.5764 51.182 49.6339 53.0411 49.7164C54.0294 49.7602 55.1761 49.811 56.4748 49.7036C60.2169 49.3944 62.3356 48.3523 63.5142 47.0075C64.1313 46.3034 64.4157 45.5386 64.1743 45.0957C63.9546 44.6926 63.328 44.5423 61.5621 45.216C60.3135 45.6919 58.4397 46.3026 55.9153 46.5893C54.3548 46.7666 52.0655 46.7745 50.1044 46.7812C49.931 46.7818 49.7602 46.7824 49.5927 46.7831Z" fill="#FFCC33"/>
<g opacity="0.8">
<path d="M50.3635 38.1491C50.6367 37.7017 51.2426 37.3564 52.234 37.3564C53.2255 37.3564 53.6919 37.751 54.0148 38.1909C54.0805 38.2804 53.981 38.3857 53.8791 38.3417C53.8546 38.3311 53.8298 38.3202 53.8045 38.3092C53.4419 38.1509 52.9967 37.9564 52.234 37.9456C51.4183 37.934 50.9039 38.1383 50.58 38.3144C50.4708 38.3737 50.2988 38.2551 50.3635 38.1491Z" fill="#14307E"/>
<path d="M39.2015 38.7214C40.1642 38.3191 40.9208 38.3711 41.4557 38.4977C41.5683 38.5243 41.6466 38.4031 41.5565 38.3305C41.1414 37.9956 40.2122 37.5799 39.0003 38.0317C37.9193 38.4349 37.4098 39.2724 37.4067 39.823C37.406 39.9528 37.673 39.9638 37.7421 39.8539C37.9286 39.5571 38.2388 39.1238 39.2015 38.7214Z" fill="#14307E"/>
<path fill-rule="evenodd" clip-rule="evenodd" d="M53.0762 44.2691C52.225 44.2691 51.5347 43.5806 51.5347 42.7333C51.5347 41.886 52.225 41.1975 53.0762 41.1975C53.9273 41.1975 54.6176 41.886 54.6176 42.7333C54.6176 43.5806 53.9273 44.2691 53.0762 44.2691ZM54.1618 42.2245C54.1618 42.0051 53.9821 41.8273 53.7627 41.8273C53.5433 41.8273 53.3655 42.0051 53.3636 42.2245C53.3636 42.4439 53.5433 42.6217 53.7627 42.6217C53.984 42.6217 54.1618 42.4439 54.1618 42.2245Z" fill="#14307E"/>
<path fill-rule="evenodd" clip-rule="evenodd" d="M42.8632 43.7962C42.8632 44.7853 42.0594 45.5873 41.0664 45.5873C40.0754 45.5873 39.2697 44.7853 39.2697 43.7962C39.2697 42.807 40.0754 42.005 41.0664 42.005C42.0575 42.005 42.8632 42.807 42.8632 43.7962ZM42.3336 43.2023C42.3336 42.9469 42.1256 42.7389 41.8684 42.7389C41.613 42.7389 41.405 42.9451 41.4031 43.2023C41.4031 43.4576 41.6112 43.6657 41.8684 43.6657C42.1256 43.6657 42.3336 43.4576 42.3336 43.2023Z" fill="#14307E"/>
</g>
<path d="M70 86C78.8366 86 86 78.8366 86 70C86 61.1634 78.8366 54 70 54C61.1634 54 54 61.1634 54 70C54 78.8366 61.1634 86 70 86Z" fill="#4CBA3C"/>
<path fill-rule="evenodd" clip-rule="evenodd" d="M72 61C72.5523 61 73 61.4477 73 62V70.9777C73 71.3938 73.4785 71.6278 73.807 71.3724L76.6967 69.1248C77.138 68.7815 77.7751 68.8668 78.1106 69.3142L79.9103 71.7138C80.2376 72.1502 80.1548 72.7684 79.7242 73.1032L71.453 79.5343C70.5837 80.1552 69.416 80.1552 68.5468 79.5343L60.2758 73.1032C59.8452 72.7684 59.7623 72.1502 60.0896 71.7138L61.8894 69.3142C62.2249 68.8668 62.862 68.7815 63.3033 69.1248L66.193 71.3724C66.5215 71.6278 67 71.3938 67 70.9777V62C67 61.4477 67.4477 61 68 61H72Z" fill="white"/>
<path d="M91.5015 58C91.7989 58 92.0962 58.12 92.3236 58.3539C92.7785 58.8219 92.7785 59.5837 92.3236 60.0517L89.9913 62.4512C89.5364 62.9192 88.7959 62.9192 88.3411 62.4512C87.8863 61.9833 87.8863 61.2215 88.3411 60.7535L90.6735 58.3539C90.9009 58.12 91.1983 58 91.4957 58H91.5015Z" fill="#CCCCCC"/>
<path d="M90.3352 68.7982H93.8338C94.4752 68.7982 95 69.3381 95 69.998C95 70.6579 94.4752 71.1978 93.8338 71.1978H90.3352C89.6938 71.1978 89.169 70.6579 89.169 69.998C89.169 69.3381 89.6938 68.7982 90.3352 68.7982Z" fill="#CCCCCC"/>
<path d="M88.353 77.5518C88.5804 77.3178 88.8778 77.1978 89.1751 77.1978H89.181C89.4783 77.1978 89.7757 77.3178 90.0031 77.5518L92.3355 79.9513C92.7903 80.4193 92.7903 81.1811 92.3355 81.6491C91.8807 82.117 91.1402 82.117 90.6854 81.6491L88.353 79.2495C87.8982 78.7815 87.8982 78.0197 88.353 77.5518Z" fill="#CCCCCC"/>
</svg>